<mxfile host="www.draw.io" modified="2019-11-03T11:42:40.583Z" agent="Mozilla/5.0 (Windows NT 10.0; Win64; x64; rv:70.0) Gecko/20100101 Firefox/70.0" etag="q6vO1PRPo9RXOKKXporD" version="12.1.9" type="github" pages="1">
  <diagram id="I4vG1qmLPaPnZNt0lLWI" name="消息设计">
    <mxGraphModel dx="1675" dy="873" grid="1" gridSize="10" guides="1" tooltips="1" connect="1" arrows="1" fold="1" page="1" pageScale="1" pageWidth="1654" pageHeight="1169" math="0" shadow="0">
      <root>
        <mxCell id="0"/>
        <mxCell id="1" parent="0"/>
        <object label="客户端通知" id="VZndIEhIQSD7qVyDR7WP-1">
          <mxCell style="swimlane;fontStyle=0;childLayout=stackLayout;horizontal=1;startSize=27;fillColor=none;horizontalStack=0;resizeParent=1;resizeParentMax=0;resizeLast=0;collapsible=1;marginBottom=0;" vertex="1" parent="1">
            <mxGeometry x="1012.5" y="410" width="140" height="131" as="geometry">
              <mxRectangle x="240" y="490" width="50" height="26" as="alternateBounds"/>
            </mxGeometry>
          </mxCell>
        </object>
        <mxCell id="VZndIEhIQSD7qVyDR7WP-2" value="Item 1" style="text;strokeColor=none;fillColor=none;align=left;verticalAlign=top;spacingLeft=4;spacingRight=4;overflow=hidden;rotatable=0;points=[[0,0.5],[1,0.5]];portConstraint=eastwest;" vertex="1" parent="VZndIEhIQSD7qVyDR7WP-1">
          <mxGeometry y="27" width="140" height="26" as="geometry"/>
        </mxCell>
        <mxCell id="VZndIEhIQSD7qVyDR7WP-3" value="Item 2" style="text;strokeColor=none;fillColor=none;align=left;verticalAlign=top;spacingLeft=4;spacingRight=4;overflow=hidden;rotatable=0;points=[[0,0.5],[1,0.5]];portConstraint=eastwest;" vertex="1" parent="VZndIEhIQSD7qVyDR7WP-1">
          <mxGeometry y="53" width="140" height="26" as="geometry"/>
        </mxCell>
        <mxCell id="VZndIEhIQSD7qVyDR7WP-4" value="Item 3" style="text;strokeColor=none;fillColor=none;align=left;verticalAlign=top;spacingLeft=4;spacingRight=4;overflow=hidden;rotatable=0;points=[[0,0.5],[1,0.5]];portConstraint=eastwest;" vertex="1" parent="VZndIEhIQSD7qVyDR7WP-1">
          <mxGeometry y="79" width="140" height="26" as="geometry"/>
        </mxCell>
        <mxCell id="VZndIEhIQSD7qVyDR7WP-7" value="List Item" style="text;strokeColor=none;fillColor=none;align=left;verticalAlign=top;spacingLeft=4;spacingRight=4;overflow=hidden;rotatable=0;points=[[0,0.5],[1,0.5]];portConstraint=eastwest;" vertex="1" parent="VZndIEhIQSD7qVyDR7WP-1">
          <mxGeometry y="105" width="140" height="26" as="geometry"/>
        </mxCell>
        <mxCell id="VZndIEhIQSD7qVyDR7WP-16" style="edgeStyle=orthogonalEdgeStyle;rounded=0;orthogonalLoop=1;jettySize=auto;html=1;entryX=-0.005;entryY=0.558;entryDx=0;entryDy=0;entryPerimeter=0;" edge="1" parent="1" source="VZndIEhIQSD7qVyDR7WP-11" target="VZndIEhIQSD7qVyDR7WP-14">
          <mxGeometry relative="1" as="geometry"/>
        </mxCell>
        <mxCell id="VZndIEhIQSD7qVyDR7WP-17" value="RMD&lt;br&gt;(taodongli)" style="text;html=1;resizable=0;points=[];align=center;verticalAlign=middle;labelBackgroundColor=#ffffff;" vertex="1" connectable="0" parent="VZndIEhIQSD7qVyDR7WP-16">
          <mxGeometry x="-0.4458" y="-3" relative="1" as="geometry">
            <mxPoint as="offset"/>
          </mxGeometry>
        </mxCell>
        <mxCell id="VZndIEhIQSD7qVyDR7WP-11" value="trade-server" style="rounded=0;whiteSpace=wrap;html=1;" vertex="1" parent="1">
          <mxGeometry x="200" y="680" width="120" height="40" as="geometry"/>
        </mxCell>
        <mxCell id="VZndIEhIQSD7qVyDR7WP-32" style="edgeStyle=orthogonalEdgeStyle;rounded=0;orthogonalLoop=1;jettySize=auto;html=1;exitX=0.25;exitY=1;exitDx=0;exitDy=0;entryX=0.25;entryY=0;entryDx=0;entryDy=0;" edge="1" parent="1" source="VZndIEhIQSD7qVyDR7WP-14" target="VZndIEhIQSD7qVyDR7WP-31">
          <mxGeometry relative="1" as="geometry"/>
        </mxCell>
        <mxCell id="VZndIEhIQSD7qVyDR7WP-59" style="edgeStyle=orthogonalEdgeStyle;rounded=0;orthogonalLoop=1;jettySize=auto;html=1;entryX=0;entryY=0.5;entryDx=0;entryDy=0;" edge="1" parent="1" source="VZndIEhIQSD7qVyDR7WP-14" target="VZndIEhIQSD7qVyDR7WP-28">
          <mxGeometry relative="1" as="geometry"/>
        </mxCell>
        <mxCell id="VZndIEhIQSD7qVyDR7WP-14" value="" style="rounded=0;whiteSpace=wrap;html=1;" vertex="1" parent="1">
          <mxGeometry x="440" y="700" width="290" height="170" as="geometry"/>
        </mxCell>
        <mxCell id="VZndIEhIQSD7qVyDR7WP-15" value="achievement" style="text;html=1;strokeColor=none;fillColor=none;align=center;verticalAlign=middle;whiteSpace=wrap;rounded=0;" vertex="1" parent="1">
          <mxGeometry x="440" y="670" width="100" height="20" as="geometry"/>
        </mxCell>
        <mxCell id="VZndIEhIQSD7qVyDR7WP-19" style="edgeStyle=orthogonalEdgeStyle;rounded=0;orthogonalLoop=1;jettySize=auto;html=1;entryX=0;entryY=0.5;entryDx=0;entryDy=0;" edge="1" parent="1" source="VZndIEhIQSD7qVyDR7WP-18" target="VZndIEhIQSD7qVyDR7WP-14">
          <mxGeometry relative="1" as="geometry"/>
        </mxCell>
        <mxCell id="VZndIEhIQSD7qVyDR7WP-18" value="qc-engine" style="rounded=0;whiteSpace=wrap;html=1;" vertex="1" parent="1">
          <mxGeometry x="200" y="800" width="120" height="40" as="geometry"/>
        </mxCell>
        <mxCell id="VZndIEhIQSD7qVyDR7WP-21" value="&lt;div align=&quot;left&quot;&gt;employee-snick-cnick&lt;/div&gt;" style="text;html=1;strokeColor=none;fillColor=none;align=left;verticalAlign=middle;whiteSpace=wrap;rounded=0;" vertex="1" parent="1">
          <mxGeometry x="200" y="899" width="140" height="20" as="geometry"/>
        </mxCell>
        <mxCell id="VZndIEhIQSD7qVyDR7WP-22" value="质检事件：&lt;br&gt;&lt;div align=&quot;left&quot;&gt;对话创建，质检项（主动跟进...)&lt;/div&gt;" style="text;html=1;strokeColor=none;fillColor=none;align=left;verticalAlign=middle;whiteSpace=wrap;rounded=0;" vertex="1" parent="1">
          <mxGeometry x="200" y="849" width="180" height="50" as="geometry"/>
        </mxCell>
        <mxCell id="VZndIEhIQSD7qVyDR7WP-23" value="employee-cnick" style="rounded=1;whiteSpace=wrap;html=1;" vertex="1" parent="1">
          <mxGeometry x="455" y="746" width="125" height="39" as="geometry"/>
        </mxCell>
        <mxCell id="VZndIEhIQSD7qVyDR7WP-24" value="事件处理逻辑" style="rounded=1;whiteSpace=wrap;html=1;" vertex="1" parent="1">
          <mxGeometry x="455" y="801" width="255" height="39" as="geometry"/>
        </mxCell>
        <mxCell id="VZndIEhIQSD7qVyDR7WP-27" style="edgeStyle=orthogonalEdgeStyle;rounded=0;orthogonalLoop=1;jettySize=auto;html=1;exitX=0;exitY=0.5;exitDx=0;exitDy=0;entryX=1;entryY=0.5;entryDx=0;entryDy=0;" edge="1" parent="1" source="VZndIEhIQSD7qVyDR7WP-26" target="VZndIEhIQSD7qVyDR7WP-23">
          <mxGeometry relative="1" as="geometry"/>
        </mxCell>
        <mxCell id="VZndIEhIQSD7qVyDR7WP-26" value="质检状态" style="rounded=1;whiteSpace=wrap;html=1;" vertex="1" parent="1">
          <mxGeometry x="590" y="746" width="110" height="39" as="geometry"/>
        </mxCell>
        <mxCell id="VZndIEhIQSD7qVyDR7WP-57" style="edgeStyle=orthogonalEdgeStyle;rounded=0;orthogonalLoop=1;jettySize=auto;html=1;entryX=0;entryY=0.5;entryDx=0;entryDy=0;" edge="1" parent="1" source="VZndIEhIQSD7qVyDR7WP-28" target="VZndIEhIQSD7qVyDR7WP-43">
          <mxGeometry relative="1" as="geometry"/>
        </mxCell>
        <mxCell id="VZndIEhIQSD7qVyDR7WP-58" style="edgeStyle=orthogonalEdgeStyle;rounded=0;orthogonalLoop=1;jettySize=auto;html=1;entryX=0;entryY=0.5;entryDx=0;entryDy=0;" edge="1" parent="1" source="VZndIEhIQSD7qVyDR7WP-28" target="VZndIEhIQSD7qVyDR7WP-35">
          <mxGeometry relative="1" as="geometry"/>
        </mxCell>
        <mxCell id="VZndIEhIQSD7qVyDR7WP-28" value="加分事件列表" style="rounded=1;whiteSpace=wrap;html=1;" vertex="1" parent="1">
          <mxGeometry x="790" y="751" width="160" height="50" as="geometry"/>
        </mxCell>
        <mxCell id="VZndIEhIQSD7qVyDR7WP-33" style="edgeStyle=orthogonalEdgeStyle;rounded=0;orthogonalLoop=1;jettySize=auto;html=1;exitX=0.75;exitY=0;exitDx=0;exitDy=0;entryX=0.75;entryY=1;entryDx=0;entryDy=0;" edge="1" parent="1" source="VZndIEhIQSD7qVyDR7WP-31" target="VZndIEhIQSD7qVyDR7WP-14">
          <mxGeometry relative="1" as="geometry"/>
        </mxCell>
        <mxCell id="VZndIEhIQSD7qVyDR7WP-31" value="tdl-ump" style="rounded=0;whiteSpace=wrap;html=1;" vertex="1" parent="1">
          <mxGeometry x="440" y="919" width="290" height="40" as="geometry"/>
        </mxCell>
        <mxCell id="VZndIEhIQSD7qVyDR7WP-34" value="同步淘动力客服" style="text;html=1;strokeColor=none;fillColor=none;align=center;verticalAlign=middle;whiteSpace=wrap;rounded=0;" vertex="1" parent="1">
          <mxGeometry x="536.5" y="890" width="87" height="20" as="geometry"/>
        </mxCell>
        <mxCell id="VZndIEhIQSD7qVyDR7WP-51" style="edgeStyle=orthogonalEdgeStyle;rounded=0;orthogonalLoop=1;jettySize=auto;html=1;entryX=0.5;entryY=1;entryDx=0;entryDy=0;" edge="1" parent="1" source="VZndIEhIQSD7qVyDR7WP-35" target="VZndIEhIQSD7qVyDR7WP-48">
          <mxGeometry relative="1" as="geometry"/>
        </mxCell>
        <mxCell id="VZndIEhIQSD7qVyDR7WP-56" value="API" style="text;html=1;resizable=0;points=[];align=center;verticalAlign=middle;labelBackgroundColor=#ffffff;" vertex="1" connectable="0" parent="VZndIEhIQSD7qVyDR7WP-51">
          <mxGeometry x="-0.316" y="-2" relative="1" as="geometry">
            <mxPoint as="offset"/>
          </mxGeometry>
        </mxCell>
        <mxCell id="VZndIEhIQSD7qVyDR7WP-60" style="edgeStyle=orthogonalEdgeStyle;rounded=0;orthogonalLoop=1;jettySize=auto;html=1;entryX=0.407;entryY=1.024;entryDx=0;entryDy=0;entryPerimeter=0;" edge="1" parent="1" source="VZndIEhIQSD7qVyDR7WP-35" target="VZndIEhIQSD7qVyDR7WP-31">
          <mxGeometry relative="1" as="geometry">
            <Array as="points">
              <mxPoint x="1080" y="979"/>
              <mxPoint x="558" y="979"/>
            </Array>
          </mxGeometry>
        </mxCell>
        <mxCell id="VZndIEhIQSD7qVyDR7WP-35" value="" style="rounded=0;whiteSpace=wrap;html=1;" vertex="1" parent="1">
          <mxGeometry x="1000" y="840" width="160" height="110" as="geometry"/>
        </mxCell>
        <mxCell id="VZndIEhIQSD7qVyDR7WP-36" value="排行榜" style="text;html=1;strokeColor=none;fillColor=none;align=center;verticalAlign=middle;whiteSpace=wrap;rounded=0;" vertex="1" parent="1">
          <mxGeometry x="1000" y="820" width="40" height="20" as="geometry"/>
        </mxCell>
        <mxCell id="VZndIEhIQSD7qVyDR7WP-37" value="缓存" style="rounded=1;whiteSpace=wrap;html=1;" vertex="1" parent="1">
          <mxGeometry x="1020" y="849" width="125" height="39" as="geometry"/>
        </mxCell>
        <mxCell id="VZndIEhIQSD7qVyDR7WP-38" value="数据库汇总" style="rounded=1;whiteSpace=wrap;html=1;" vertex="1" parent="1">
          <mxGeometry x="1020" y="897" width="125" height="39" as="geometry"/>
        </mxCell>
        <mxCell id="VZndIEhIQSD7qVyDR7WP-52" style="edgeStyle=orthogonalEdgeStyle;rounded=0;orthogonalLoop=1;jettySize=auto;html=1;entryX=0.5;entryY=0;entryDx=0;entryDy=0;" edge="1" parent="1" source="VZndIEhIQSD7qVyDR7WP-43" target="VZndIEhIQSD7qVyDR7WP-48">
          <mxGeometry relative="1" as="geometry"/>
        </mxCell>
        <mxCell id="VZndIEhIQSD7qVyDR7WP-55" value="API" style="text;html=1;resizable=0;points=[];align=center;verticalAlign=middle;labelBackgroundColor=#ffffff;" vertex="1" connectable="0" parent="VZndIEhIQSD7qVyDR7WP-52">
          <mxGeometry x="-0.2452" relative="1" as="geometry">
            <mxPoint as="offset"/>
          </mxGeometry>
        </mxCell>
        <mxCell id="VZndIEhIQSD7qVyDR7WP-43" value="" style="rounded=0;whiteSpace=wrap;html=1;" vertex="1" parent="1">
          <mxGeometry x="1000" y="610" width="160" height="80" as="geometry"/>
        </mxCell>
        <mxCell id="VZndIEhIQSD7qVyDR7WP-44" value="消息处理" style="text;html=1;strokeColor=none;fillColor=none;align=center;verticalAlign=middle;whiteSpace=wrap;rounded=0;" vertex="1" parent="1">
          <mxGeometry x="1000" y="590" width="60" height="20" as="geometry"/>
        </mxCell>
        <mxCell id="VZndIEhIQSD7qVyDR7WP-45" value="消息生成逻辑" style="rounded=1;whiteSpace=wrap;html=1;" vertex="1" parent="1">
          <mxGeometry x="1017.5" y="626" width="125" height="39" as="geometry"/>
        </mxCell>
        <mxCell id="VZndIEhIQSD7qVyDR7WP-54" style="edgeStyle=orthogonalEdgeStyle;rounded=0;orthogonalLoop=1;jettySize=auto;html=1;entryX=0;entryY=0.5;entryDx=0;entryDy=0;" edge="1" parent="1" source="VZndIEhIQSD7qVyDR7WP-48" target="VZndIEhIQSD7qVyDR7WP-53">
          <mxGeometry relative="1" as="geometry"/>
        </mxCell>
        <mxCell id="VZndIEhIQSD7qVyDR7WP-48" value="qc-front" style="rounded=0;whiteSpace=wrap;html=1;" vertex="1" parent="1">
          <mxGeometry x="1200" y="751" width="120" height="41" as="geometry"/>
        </mxCell>
        <mxCell id="VZndIEhIQSD7qVyDR7WP-53" value="淘动力客户端" style="shape=process;whiteSpace=wrap;html=1;backgroundOutline=1;" vertex="1" parent="1">
          <mxGeometry x="1380" y="751" width="120" height="40" as="geometry"/>
        </mxCell>
        <mxCell id="VZndIEhIQSD7qVyDR7WP-61" value="统计报表数据接口" style="text;html=1;strokeColor=none;fillColor=none;align=center;verticalAlign=middle;whiteSpace=wrap;rounded=0;" vertex="1" parent="1">
          <mxGeometry x="766" y="990" width="120" height="20" as="geometry"/>
        </mxCell>
      </root>
    </mxGraphModel>
  </diagram>
</mxfile>
